# Blender 4.3.2
# www.blender.org
o Stairs_-_obj-1775566659234-lxo1km
v 2.620000 0.200000 -1.986149
v 2.620000 0.200000 1.850000
v 1.620000 0.200000 1.850000
v 2.620000 0.200000 -0.986149
v 1.620000 0.200000 -1.986149
v -1.520000 0.200000 -0.986149
v 1.620000 1.452267 -1.986149
v 1.620000 2.600000 1.850000
v 2.620000 2.600000 1.850000
v 2.620000 1.452267 -1.986149
v -1.520000 0.200000 -1.986149
v 1.620000 1.452267 -0.986149
v 2.620000 1.452267 -0.986149
v 1.620000 0.200000 -0.986149
vn -0.0000 -0.0000 -1.0000
vn -0.0000 -0.0000 1.0000
vn 1.0000 -0.0000 -0.0000
vn -1.0000 -0.0000 -0.0000
vn -0.0000 1.0000 -0.0000
vn -0.3704 0.9289 -0.0000
vn -0.0000 0.9270 -0.3751
vn -0.0000 -1.0000 -0.0000
s 0
f 1//1 5//1 7//1 10//1
f 5//1 11//1 7//1
f 3//2 2//2 9//2 8//2
f 2//3 4//3 13//3 9//3
f 4//3 1//3 10//3 13//3
f 14//4 3//4 8//4 12//4
f 13//5 10//5 7//5 12//5
f 6//6 12//6 7//6 11//6
f 9//7 13//7 12//7 8//7
f 6//2 14//2 12//2
f 4//8 2//8 3//8 14//8
f 14//8 6//8 11//8 5//8
f 5//8 1//8 4//8 14//8
