
<svg xmlns="http://www.w3.org/2000/svg" version="1.1" xmlns:xlink="http://www.w3.org/1999/xlink" preserveAspectRatio="none" x="0px" y="0px" width="78px" height="78px" viewBox="0 0 78 78">
<defs/>

<g id="Layer_2">
<g>
<g>
<path stroke="#3b82f6" stroke-width="1" stroke-linejoin="round" stroke-linecap="round" fill="none" d="
M 4.55 0.5
L 7.95 0.5 7.95 69.05 4.55 69.05 4.55 0.5 Z"/>
</g>
</g>
</g>

<g id="Layer_3">
<g>
<g>
<path stroke="#3b82f6" stroke-width="1" stroke-linejoin="round" stroke-linecap="round" fill="none" d="
M 0.5 77.55
L 0.5 68.9 4.55 68.9 4.55 72.9 6.3 72.9 6.3 77.55 0.5 77.55 Z
M 77.7 68.9
L 77.7 77.55 71.7 77.55 71.7 72.9 73.45 72.9 73.45 68.9 77.7 68.9 Z"/>
</g>
</g>
</g>

<g id="Layer_4">
<g>
<g>
<path fill="#3b82f6" stroke="none" d="
M 73.8 62.95
Q 73.7822265625 62.7509765625 73.6 62.6 73.4599609375 62.486328125 73.25 62.5 73.0505859375 62.517578125 72.9 62.65 72.7865234375 62.8396484375 72.8 63.05 72.949609375 64.5375 73 66 73 66.2125 73 66.4 73.0017578125 66.6052734375 73.15 66.75 73.2947265625 66.8982421875 73.5 66.9 73.7052734375 66.8982421875 73.85 66.75 73.9982421875 66.6052734375 74 66.4 74 66.2 74 66
L 74 65.95
Q 73.9505859375 64.4625 73.8 62.95
M 72.7 54.8
Q 72.653125 54.5935546875 72.45 54.45 72.30234375 54.3595703125 72.1 54.4 71.8939453125 54.4466796875 71.75 54.6 71.6595703125 54.7978515625 71.7 55 72.099609375 56.9876953125 72.4 59 72.43203125 59.227734375 72.6 59.35 72.7685546875 59.476953125 72.95 59.45 73.1775390625 59.41796875 73.3 59.25 73.4267578125 59.0810546875 73.4 58.85 73.1001953125 56.8123046875 72.7 54.8
M 14.2 0.45
Q 12.1998046875 0.14921875 10.15 0 9.976171875 -0.012890625 9.8 0.1 9.666796875 0.2521484375 9.65 0.45 9.6369140625 0.66171875 9.75 0.8 9.9142578125 0.9830078125 10.1 1 12.0998046875 1.1505859375 14.05 1.45 14.2806640625 1.476953125 14.45 1.35 14.61796875 1.2279296875 14.65 1 14.6771484375 0.8189453125 14.55 0.65 14.4283203125 0.482421875 14.2 0.45
M 22.6 2.3
Q 22.5220703125 2.1240234375 22.3 2.05 20.3125 1.562109375 18.3 1.15 18.0978515625 1.1095703125 17.9 1.2 17.7466796875 1.3439453125 17.7 1.55 17.6595703125 1.75234375 17.75 1.9 17.8935546875 2.103125 18.1 2.15 20.0875 2.537890625 22.05 3 22.2732421875 3.0783203125 22.45 2.95 22.626171875 2.8716796875 22.65 2.65 22.7287109375 2.4763671875 22.6 2.3
M 26.1 3.1
Q 25.9080078125 3.058203125 25.7 3.15 25.540625 3.2482421875 25.45 3.45 25.408203125 3.6419921875 25.5 3.8 25.5982421875 4.0091796875 25.8 4.05 27.6875 4.7251953125 29.55 5.45 29.762890625 5.541796875 29.95 5.45 30.1443359375 5.3669921875 30.2 5.15 30.2919921875 4.98671875 30.2 4.8 30.1173828125 4.605859375 29.9 4.5 28.0125 3.774609375 26.1 3.1
M 33.65 6.15
Q 33.4783203125 6.0583984375 33.25 6.1 33.0849609375 6.1912109375 33 6.35 32.9080078125 6.571484375 32.95 6.75 33.04140625 6.96484375 33.2 7.05 35.0123046875 7.9001953125 36.75 8.85 36.94296875 8.9416015625 37.15 8.85 37.3494140625 8.8115234375 37.45 8.6 37.5416015625 8.4451171875 37.45 8.25 37.4232421875 8.0505859375 37.25 7.95 35.4876953125 6.999609375 33.65 6.15
M 70.55 46.95
Q 70.5091796875 46.7482421875 70.3 46.65 70.1419921875 46.558203125 69.95 46.6 69.7482421875 46.690625 69.65 46.85 69.558203125 47.0580078125 69.6 47.25 70.27421875 49.1376953125 70.75 51.05 70.82421875 51.271875 71 51.35 71.1767578125 51.4787109375 71.35 51.4 71.571875 51.3759765625 71.65 51.2 71.778515625 51.0232421875 71.7 50.8 71.22578125 48.862109375 70.55 46.95
M 69.15 43.15
Q 68.41328125 41.2494140625 67.5 39.4 67.4009765625 39.240234375 67.2 39.15 67.0072265625 39.1080078125 66.8 39.2 66.6400390625 39.2986328125 66.55 39.5 66.5083984375 39.6923828125 66.6 39.85 67.48671875 41.6505859375 68.2 43.5 68.305859375 43.7173828125 68.5 43.8 68.68671875 43.8919921875 68.85 43.8 69.0669921875 43.7443359375 69.15 43.55 69.241796875 43.362890625 69.15 43.15
M 62.55 32.55
Q 62.509375 32.75078125 62.6 32.9 63.724609375 34.6126953125 64.7 36.35 64.8267578125 36.52421875 65 36.55 65.221875 36.62890625 65.4 36.5 65.575 36.423046875 65.6 36.2 65.67890625 36.0287109375 65.55 35.85 64.575390625 34.087109375 63.45 32.35 63.3568359375 32.19765625 63.15 32.15 62.948828125 32.109375 62.75 32.2 62.597265625 32.3431640625 62.55 32.55
M 57.85 26.45
Q 59.1619140625 28.0125 60.35 29.6 60.4728515625 29.76796875 60.65 29.8 60.881640625 29.826953125 61.05 29.7 61.218359375 29.57734375 61.25 29.35 61.2767578125 29.16875 61.15 29 59.9376953125 27.387109375 58.6 25.8 58.498828125 25.6677734375 58.3 25.65 58.0892578125 25.63671875 57.9 25.75 57.7671875 25.9013671875 57.75 26.1 57.73671875 26.31015625 57.85 26.45
M 52.65 20.8
Q 53.9873046875 22.1501953125 55.25 23.55 55.4177734375 23.696875 55.6 23.7 55.8396484375 23.7119140625 56 23.55 56.1470703125 23.432421875 56.15 23.2 56.16171875 23.0107421875 56 22.85 54.7126953125 21.45 53.35 20.1 53.2052734375 19.9517578125 53 19.95 52.7947265625 19.9517578125 52.65 20.1 52.5017578125 20.2447265625 52.5 20.45 52.5017578125 20.6552734375 52.65 20.8
M 50.45 17.4
Q 48.925 16.0623046875 47.35 14.8 47.208984375 14.6740234375 47 14.7 46.7875 14.71796875 46.65 14.85 46.523828125 15.040625 46.55 15.25 46.5681640625 15.462109375 46.7 15.6 48.2751953125 16.8376953125 49.8 18.15 49.9751953125 18.3125 50.15 18.3 50.384765625 18.28359375 50.5 18.1 50.662890625 17.9748046875 50.65 17.75 50.6333984375 17.565625 50.45 17.4
M 44.1 12.3
Q 42.4376953125 11.0869140625 40.7 10 40.5365234375 9.921484375 40.3 9.95 40.1291015625 10.0232421875 40 10.2 39.921484375 10.375390625 39.95 10.55 40.011328125 10.770703125 40.15 10.85 41.862109375 11.91328125 43.5 13.1 43.66953125 13.2267578125 43.85 13.2 44.0783203125 13.1677734375 44.2 13 44.3271484375 12.8306640625 44.3 12.6 44.267578125 12.4220703125 44.1 12.3 Z"/>
</g>

<use xlink:href="#Layer0_0_STROKES_1_FILL"/>
</g>
</g>
</svg>
