<?xml version="1.0" encoding="UTF-8"?>
<svg xmlns="http://www.w3.org/2000/svg" viewBox="0 0 2151 1624" width="2151" height="1624">
  <g id="doors" fill="#00c8c8" stroke="#008080" stroke-width="2">
    <polygon points="1202,1220 1176,1222 1143,1232 1104,1258 1070,1305 1060,1337 1058,1364 1202,1364" />
    <polygon points="1907,968 1907,1100 1897,1100 1897,1241 2038,1241 2036,1216 2026,1183 2001,1145 1967,1118 1915,1101 1961,1090 2005,1058 2031,1017 2040,968" />
    <polygon points="1315,960 1315,1099 1454,1099 1446,1050 1417,1005 1394,984 1364,968" />
    <polygon points="783,914 793,972 820,1019 843,1042 878,1064 909,1075 949,1080 949,914" />
    <polygon points="1171,836 1180,881 1194,904 1219,928 1237,938 1282,947 1282,836" />
    <polygon points="1223,223 1075,223 1075,371 1127,362 1178,330 1199,304 1214,275" />
  </g>
</svg>