<?xml version="1.0" encoding="UTF-8"?>
<svg xmlns="http://www.w3.org/2000/svg" viewBox="0 0 2151 1624" width="2151" height="1624">
  <g id="walls" fill="#5064dc" stroke="#3030a0" stroke-width="2">
    <polygon points="1915,1247 1871,1247 1870,1336 1691,1336 1691,1382 1915,1382" />
    <polygon points="342,1191 342,1382 526,1382 526,1336 385,1335 385,1191" />
    <polygon points="1295,1107 1295,1334 1207,1335 1207,1382 1490,1382 1490,1336 1312,1335 1312,1107" />
    <polygon points="756,1087 756,1334 726,1335 726,1382 1046,1382 1046,1336 990,1336 989,1301 956,1301 955,1270 935,1270 934,1336 765,1335 765,1105 948,1103 948,1087" />
    <polygon points="340,731 340,991 385,991 386,921 954,921 954,897 935,897 934,911 387,911 386,731" />
    <polygon points="1150,709 1150,838 1162,838 1162,709" />
    <polygon points="1875,687 1875,958 1916,961 1916,687" />
    <polygon points="340,207 340,419 384,419 385,251 933,251 934,742 954,742 955,543 1291,543 1292,838 1286,839 1286,954 1311,954 1311,511 1294,511 1293,533 954,532 954,253 1068,252 1068,207" />
    <polygon points="1231,206 1231,251 1256,252 1256,286 1293,287 1293,358 1312,358 1313,251 1869,251 1870,394 1916,394 1916,206" />
  </g>
</svg>